<mxfile host="app.diagrams.net" modified="2024-02-09T05:47:42.588Z" agent="Mozilla/5.0 (Linux; Android 10; K) AppleWebKit/537.36 (KHTML, like Gecko) Chrome/121.0.0.0 Mobile Safari/537.36" etag="O8JPYogPDwINGAE5DP3L" version="23.1.2" type="github">
  <diagram name="Page-1" id="EODYRYMDHHHb_0EbBn9g">
    <mxGraphModel dx="718" dy="1326" grid="1" gridSize="10" guides="1" tooltips="1" connect="1" arrows="1" fold="1" page="1" pageScale="1" pageWidth="850" pageHeight="1100" math="0" shadow="0">
      <root>
        <mxCell id="0" />
        <mxCell id="1" parent="0" />
        <mxCell id="n4F6TMeLaYpo0RElO_Qm-1" value="" style="rounded=0;whiteSpace=wrap;html=1;" parent="1" vertex="1">
          <mxGeometry x="170" y="130" width="470" height="790" as="geometry" />
        </mxCell>
        <mxCell id="n4F6TMeLaYpo0RElO_Qm-2" value="" style="endArrow=none;html=1;rounded=0;exitX=0.004;exitY=0.103;exitDx=0;exitDy=0;exitPerimeter=0;entryX=1;entryY=0.103;entryDx=0;entryDy=0;entryPerimeter=0;" parent="1" source="n4F6TMeLaYpo0RElO_Qm-1" target="n4F6TMeLaYpo0RElO_Qm-1" edge="1">
          <mxGeometry width="50" height="50" relative="1" as="geometry">
            <mxPoint x="590" y="420" as="sourcePoint" />
            <mxPoint x="640" y="370" as="targetPoint" />
          </mxGeometry>
        </mxCell>
        <mxCell id="n4F6TMeLaYpo0RElO_Qm-4" value="&lt;b&gt;&lt;font style=&quot;font-size: 17px;&quot;&gt;Usecase Diagram Perpus Digital&lt;/font&gt;&lt;/b&gt;" style="text;html=1;align=center;verticalAlign=middle;resizable=0;points=[];autosize=1;strokeColor=none;fillColor=none;" parent="1" vertex="1">
          <mxGeometry x="265" y="160" width="280" height="30" as="geometry" />
        </mxCell>
        <mxCell id="n4F6TMeLaYpo0RElO_Qm-5" value="&lt;font style=&quot;font-size: 15px;&quot;&gt;Form Kunjungan&lt;/font&gt;" style="ellipse;whiteSpace=wrap;html=1;" parent="1" vertex="1">
          <mxGeometry x="314.37" y="280" width="181.25" height="100" as="geometry" />
        </mxCell>
        <mxCell id="n4F6TMeLaYpo0RElO_Qm-6" value="&lt;font style=&quot;font-size: 15px;&quot;&gt;Riwayat Pengunjung&lt;/font&gt;" style="ellipse;whiteSpace=wrap;html=1;" parent="1" vertex="1">
          <mxGeometry x="314.38" y="420" width="181.25" height="100" as="geometry" />
        </mxCell>
        <mxCell id="n4F6TMeLaYpo0RElO_Qm-7" value="&lt;span style=&quot;font-size: 15px;&quot;&gt;Pencarian Buku&lt;/span&gt;" style="ellipse;whiteSpace=wrap;html=1;" parent="1" vertex="1">
          <mxGeometry x="314.37" y="560" width="181.25" height="100" as="geometry" />
        </mxCell>
        <mxCell id="n4F6TMeLaYpo0RElO_Qm-8" value="&lt;span style=&quot;font-size: 15px;&quot;&gt;Detail Buku&lt;/span&gt;" style="ellipse;whiteSpace=wrap;html=1;" parent="1" vertex="1">
          <mxGeometry x="314.38" y="710" width="181.25" height="100" as="geometry" />
        </mxCell>
        <mxCell id="n4F6TMeLaYpo0RElO_Qm-9" value="&lt;font style=&quot;font-size: 15px;&quot;&gt;Pengunjung&lt;/font&gt;" style="shape=umlActor;verticalLabelPosition=bottom;verticalAlign=top;html=1;outlineConnect=0;" parent="1" vertex="1">
          <mxGeometry x="40" y="440" width="80" height="150" as="geometry" />
        </mxCell>
        <mxCell id="n4F6TMeLaYpo0RElO_Qm-10" value="&lt;span style=&quot;font-size: 15px;&quot;&gt;Pustakawan&lt;/span&gt;" style="shape=umlActor;verticalLabelPosition=bottom;verticalAlign=top;html=1;outlineConnect=0;" parent="1" vertex="1">
          <mxGeometry x="720" y="440" width="80" height="150" as="geometry" />
        </mxCell>
      </root>
    </mxGraphModel>
  </diagram>
</mxfile>
